<svg xmlns="http://www.w3.org/2000/svg" viewBox="0 0 64 64" width="64" height="64" style="width: 100%; height: 100%; transform: translate3d(0px, 0px, 0px);" preserveAspectRatio="xMidYMid meet"><defs><clipPath id="__lottie_element_72"><rect width="64" height="64" x="0" y="0"></rect></clipPath></defs><g clip-path="url(#__lottie_element_72)"><g style="display: block;" transform="matrix(1,0,0,1,1.75,30.75)" opacity="1"><g opacity="1" transform="matrix(1,0,0,1,30.25,15.25)"><path fill="rgb(247,160,199)" fill-opacity="1" d=" M26.674922943115234,7.258598804473877 C26.674922943115234,7.258598804473877 25.13852310180664,3.687999963760376 25.13852310180664,3.687999963760376 C24.200523376464844,-4.436999797821045 17.7810001373291,-11.104999542236328 11,-13 C11,-13 10.97599983215332,-12.984999656677246 10.97599983215332,-12.984999656677246 C8.013999938964844,-14.239999771118164 4.186999797821045,-15 0,-15 C-4.186999797821045,-15 -8.012999534606934,-14.239999771118164 -10.97599983215332,-12.984999656677246 C-10.97599983215332,-12.984999656677246 -11,-13 -11,-13 C-17.781999588012695,-11.104999542236328 -25.490942001342773,-7.047094345092773 -27.490942001342773,1.9529054164886475 C-27.490942001342773,1.9529054164886475 -28.54864501953125,5.109635353088379 -28.54864501953125,5.109635353088379 C-28.54864501953125,5.109635353088379 -26.460044860839844,4.639446258544922 -26.460044860839844,4.639446258544922 C-26.460044860839844,4.639446258544922 -26.292797088623047,8.713973045349121 -26.292797088623047,8.713973045349121 C-26.292797088623047,8.713973045349121 -23.86677360534668,6.0423383712768555 -23.86677360534668,6.0423383712768555 C-23.86677360534668,6.0423383712768555 -22.218271255493164,9.445690155029297 -22.218271255493164,9.445690155029297 C-22.218271255493164,9.445690155029297 -20.39374351501465,6.3461127281188965 -20.39374351501465,6.3461127281188965 C-20.39374351501465,6.3461127281188965 -17.7466983795166,8.307243347167969 -17.7466983795166,8.307243347167969 C-19.198144912719727,1.7586898803710938 -17.119489669799805,-0.8026222586631775 -14.979000091552734,-2.4800000190734863 C-4,2 5,2 14.979000091552734,-2.4800000190734863 C15.562000274658203,-0.5630000233650208 16.09235191345215,2.5422470569610596 15.029351234436035,5.042247295379639 C15.029351234436035,5.042247295379639 13.46589183807373,9.283188819885254 13.46589183807373,9.283188819885254 C13.46589183807373,9.283188819885254 17.003339767456055,7.201943874359131 17.003339767456055,7.201943874359131 C17.003339767456055,7.201943874359131 18.687999725341797,11.88221549987793 18.687999725341797,11.88221549987793 C18.687999725341797,11.88221549987793 21.052980422973633,7.900798797607422 21.052980422973633,7.900798797607422 C21.052980422973633,7.900798797607422 23.826982498168945,10.295251846313477 23.826982498168945,10.295251846313477 C23.826982498168945,10.295251846313477 23.56349754333496,6.409358978271484 23.56349754333496,6.409358978271484 C23.56349754333496,6.409358978271484 26.674922943115234,7.258598804473877 26.674922943115234,7.258598804473877z"></path></g><g opacity="1" transform="matrix(1,0,0,1,12.489999771118164,19.32699966430664)"><path fill="rgb(255,186,221)" fill-opacity="1" d=" M-4.304024696350098,4.026986598968506 C-4.2908172607421875,4.219240665435791 -4.246328353881836,4.1743268966674805 -4.177328109741211,4.3503265380859375 C-4.177328109741211,4.3503265380859375 -2.673238754272461,2.230243682861328 -2.673238754272461,2.230243682861328 C-2.673238754272461,2.230243682861328 0.013928691856563091,4.073513984680176 0.013928691856563091,4.073513984680176 C-1.0851891040802002,-2.0048508644104004 0.7182478308677673,-4.879622459411621 2.7809998989105225,-6.557000160217285 C3.562999963760376,-6.23799991607666 4.334000110626221,-5.946000099182129 5.0970001220703125,-5.673999786376953 C4.611000061035156,-6.526000022888184 3.861999988555908,-7.236000061035156 2.88100004196167,-7.629000186920166 C0.5740000009536743,-8.553000450134277 -1.6160000562667847,-7.514999866485596 -2.9709999561309814,-5.126999855041504 C-4.442999839782715,-2.5329999923706055 -4.599635124206543,0.37229520082473755 -4.304024696350098,4.026986598968506z"></path></g><g opacity="1" transform="matrix(1,0,0,1,48.22600173950195,19.32699966430664)"><path fill="rgb(255,186,221)" fill-opacity="1" d=" M0.6970000267028809,6.372711658477783 C0.609000027179718,6.5437116622924805 0.6593648195266724,6.852945327758789 0.5903648734092712,7.028945446014404 C0.5903648734092712,7.028945446014404 -0.8353979587554932,3.203308582305908 -0.8353979587554932,3.203308582305908 C-0.8353979587554932,3.203308582305908 -4.373472690582275,5.127824306488037 -4.373472690582275,5.127824306488037 C-2.3734726905822754,-0.8721757531166077 -0.9639999866485596,-4.757999897003174 -2.7809998989105225,-6.557000160217285 C-3.562999963760376,-6.23799991607666 -4.334000110626221,-5.946000099182129 -5.0960001945495605,-5.673999786376953 C-4.611000061035156,-6.526000022888184 -3.8910000324249268,-7.315000057220459 -2.881999969482422,-7.629000186920166 C-1.0390000343322754,-8.20199966430664 1.0127487182617188,-7.36668586730957 1.6834229230880737,-5.3289055824279785 C2.784058094024658,-1.9183515310287476 1.7120000123977661,4.406711578369141 0.6970000267028809,6.372711658477783z"></path></g></g><g style="display: block;" transform="matrix(1,0,0,1,-3,26)" opacity="1"><g opacity="1" transform="matrix(1,0,0,1,35,20)"><path stroke-linecap="round" stroke-linejoin="round" fill-opacity="0" stroke="rgb(141,108,159)" stroke-opacity="1" stroke-width="2" d=" M26.634593963623047,6.631680011749268 C26.634593963623047,6.631680011749268 24.975486755371094,2.9399187564849854 24.975486755371094,2.9399187564849854 C22.975486755371094,-6.060081481933594 17.7810001373291,-11.104999542236328 11,-13 C11,-13 10.97599983215332,-12.984999656677246 10.97599983215332,-12.984999656677246 C8.013999938964844,-14.239999771118164 4.186999797821045,-15 0,-15 C-4.186999797821045,-15 -8.012999534606934,-14.239999771118164 -10.97599983215332,-12.984999656677246 C-10.97599983215332,-12.984999656677246 -11,-13 -11,-13 C-17.781999588012695,-11.104999542236328 -24.850000381469727,-7.762627124786377 -27.299999237060547,0.9873730540275574 C-27.299999237060547,0.9873730540275574 -29.147199630737305,5.874565601348877 -29.147199630737305,5.874565601348877 C-29.147199630737305,5.874565601348877 -26.619306564331055,4.783175945281982 -26.619306564331055,4.783175945281982 C-26.619306564331055,4.783175945281982 -26.545703887939453,9.206820487976074 -26.545703887939453,9.206820487976074 C-26.545703887939453,9.206820487976074 -24.02686882019043,5.866301536560059 -24.02686882019043,5.866301536560059 C-24.02686882019043,5.866301536560059 -22.05776596069336,9.674004554748535 -22.05776596069336,9.674004554748535 C-22.05776596069336,9.674004554748535 -20.725013732910156,5.624527454376221 -20.725013732910156,5.624527454376221 C-20.725013732910156,5.624527454376221 -17.985990524291992,8.299004554748535 -17.985990524291992,8.299004554748535 C-18.543333053588867,2.3129236698150635 -17.04112434387207,-0.8809871077537537 -14.979000091552734,-2.4800000190734863 C-4,2 5,2 14.979000091552734,-2.4800000190734863 C15.591811180114746,0.3288242220878601 15.606257438659668,3.3302836418151855 13.606257438659668,9.330283164978027 C13.606257438659668,9.330283164978027 16.702905654907227,7.469729900360107 16.702905654907227,7.469729900360107 C16.702905654907227,7.469729900360107 18.313459396362305,11.872530937194824 18.313459396362305,11.872530937194824 C18.313459396362305,11.872530937194824 20.564918518066406,7.586963653564453 20.564918518066406,7.586963653564453 C20.564918518066406,7.586963653564453 23.99861717224121,10.315378189086914 23.99861717224121,10.315378189086914 C23.99861717224121,10.315378189086914 23.2456111907959,5.859635353088379 23.2456111907959,5.859635353088379 C23.2456111907959,5.859635353088379 26.634593963623047,6.631680011749268 26.634593963623047,6.631680011749268z"></path></g></g><g style="display: block;" transform="matrix(1,0,0,1,-3,-2)" opacity="1"><g opacity="1" transform="matrix(1,0,0,1,13.432000160217285,27.357999801635742)"><path fill="rgb(255,186,221)" fill-opacity="1" d=" M3.568000078201294,-2.3580000400543213 C-0.8700000047683716,-2.1080000400543213 -2.1925132274627686,-5.303483963012695 -7.812594890594482,-6.768579959869385 C-4.530519008636475,-2.3879852294921875 -3.619999885559082,1.2039999961853027 1.5679999589920044,4.642000198364258 C7.4670000076293945,8.550999641418457 3.568000078201294,-2.3580000400543213 3.568000078201294,-2.3580000400543213z"></path><path stroke-linecap="round" stroke-linejoin="round" fill-opacity="0" stroke="rgb(141,108,159)" stroke-opacity="1" stroke-width="2" d=" M3.568000078201294,-2.3580000400543213 C-0.8700000047683716,-2.1080000400543213 -2.1925132274627686,-5.303483963012695 -7.812594890594482,-6.768579959869385 C-4.530519008636475,-2.3879852294921875 -3.619999885559082,1.2039999961853027 1.5679999589920044,4.642000198364258 C7.4670000076293945,8.550999641418457 3.568000078201294,-2.3580000400543213 3.568000078201294,-2.3580000400543213z"></path></g><g opacity="1" transform="matrix(1,0,0,1,16,18)"><path fill="rgb(255,186,221)" fill-opacity="1" d=" M-6.67601203918457,-6.451078414916992 C-4.345630168914795,-0.18066713213920593 -2.625,2.937000036239624 1,7 C3,5 6,3 6,3 C6,3 -0.958026647567749,-1.8630725145339966 -6.67601203918457,-6.451078414916992z"></path><path stroke-linecap="round" stroke-linejoin="round" fill-opacity="0" stroke="rgb(141,108,159)" stroke-opacity="1" stroke-width="2" d=" M-6.67601203918457,-6.451078414916992 C-4.345630168914795,-0.18066713213920593 -2.625,2.937000036239624 1,7 C3,5 6,3 6,3 C6,3 -0.958026647567749,-1.8630725145339966 -6.67601203918457,-6.451078414916992z"></path></g><g opacity="1" transform="matrix(1,0,0,1,21.54199981689453,13.166999816894531)"><path fill="rgb(255,186,221)" fill-opacity="1" d=" M-5.873072624206543,-5.4550089836120605 C-2.827049493789673,0.0999068170785904 -3.5344607830047607,3.7274668216705322 0.041999999433755875,7.166999816894531 C1.4589999914169312,6.834000110626221 5.458000183105469,3.8329999446868896 5.458000183105469,3.8329999446868896 C-0.26100000739097595,0.14499999582767487 -0.7516471743583679,-1.806492567062378 -5.873072624206543,-5.4550089836120605z"></path><path stroke-linecap="round" stroke-linejoin="round" fill-opacity="0" stroke="rgb(141,108,159)" stroke-opacity="1" stroke-width="2" d=" M-5.873072624206543,-5.4550089836120605 C-2.827049493789673,0.0999068170785904 -3.5344607830047607,3.7274668216705322 0.041999999433755875,7.166999816894531 C1.4589999914169312,6.834000110626221 5.458000183105469,3.8329999446868896 5.458000183105469,3.8329999446868896 C-0.26100000739097595,0.14499999582767487 -0.7516471743583679,-1.806492567062378 -5.873072624206543,-5.4550089836120605z"></path></g><g opacity="1" transform="matrix(1,0,0,1,56.56700134277344,27.357999801635742)"><path fill="rgb(255,186,221)" fill-opacity="1" d=" M-3.568000078201294,-2.3580000400543213 C3.5165014266967773,-1.372017741203308 5.528014659881592,-4.9048919677734375 8.099912643432617,-7.033396244049072 C7.08509635925293,-2.19889497756958 5.586985111236572,1.796985149383545 -1.5679999589920044,4.642000198364258 C-8.10243034362793,7.273320198059082 -3.568000078201294,-2.3580000400543213 -3.568000078201294,-2.3580000400543213z"></path><path stroke-linecap="round" stroke-linejoin="round" fill-opacity="0" stroke="rgb(141,108,159)" stroke-opacity="1" stroke-width="2" d=" M-3.568000078201294,-2.3580000400543213 C3.5165014266967773,-1.372017741203308 5.528014659881592,-4.9048919677734375 8.099912643432617,-7.033396244049072 C7.08509635925293,-2.19889497756958 5.586985111236572,1.796985149383545 -1.5679999589920044,4.642000198364258 C-8.10243034362793,7.273320198059082 -3.568000078201294,-2.3580000400543213 -3.568000078201294,-2.3580000400543213z"></path></g><g opacity="1" transform="matrix(1,0,0,1,54,18)"><path fill="rgb(255,186,221)" fill-opacity="1" d=" M5.186525344848633,-6.65848970413208 C4.298921585083008,-0.9119940996170044 2.183556079864502,2.154985189437866 -1,7 C-3,5 -6,3 -6,3 C-6,3 -0.44150444865226746,-1.3400355577468872 5.186525344848633,-6.65848970413208z"></path><path stroke-linecap="round" stroke-linejoin="round" fill-opacity="0" stroke="rgb(141,108,159)" stroke-opacity="1" stroke-width="2" d=" M5.186525344848633,-6.65848970413208 C4.298921585083008,-0.9119940996170044 2.183556079864502,2.154985189437866 -1,7 C-3,5 -6,3 -6,3 C-6,3 -0.44150444865226746,-1.3400355577468872 5.186525344848633,-6.65848970413208z"></path></g><g opacity="1" transform="matrix(1,0,0,1,48.41699981689453,12.666999816894531)"><path fill="rgb(255,186,221)" fill-opacity="1" d=" M1.6361020803451538,-6.080408096313477 C1.6361020803451538,-6.080408096313477 1.8939703702926636,1.9674230813980103 0.0010000000474974513,7.666999816894531 C-1.4160000085830688,7.334000110626221 -5.416999816894531,5.333000183105469 -5.416999816894531,5.333000183105469 C-5.416999816894531,5.333000183105469 -0.8835103511810303,-0.037020713090896606 1.6361020803451538,-6.080408096313477z"></path><path stroke-linecap="round" stroke-linejoin="round" fill-opacity="0" stroke="rgb(141,108,159)" stroke-opacity="1" stroke-width="2" d=" M1.6361020803451538,-6.080408096313477 C1.6361020803451538,-6.080408096313477 1.8939703702926636,1.9674230813980103 0.0010000000474974513,7.666999816894531 C-1.4160000085830688,7.334000110626221 -5.416999816894531,5.333000183105469 -5.416999816894531,5.333000183105469 C-5.416999816894531,5.333000183105469 -0.8835103511810303,-0.037020713090896606 1.6361020803451538,-6.080408096313477z"></path></g></g><g style="display: block;" transform="matrix(1,0,0,1,6,8.343000411987305)" opacity="1"><g opacity="1" transform="matrix(1,0,0,1,26.382999420166016,19.073999404907227)"><path fill="rgb(248,226,173)" fill-opacity="1" d=" M21,1.7430000305175781 C21,9.335000038146973 11.598999977111816,14.329000473022461 0,14.329000473022461 C-11.597999572753906,14.329000473022461 -21,9.335000038146973 -21,1.7430000305175781 C-21,-5.849999904632568 -11.597999572753906,-14.329000473022461 0,-14.329000473022461 C11.598999977111816,-14.329000473022461 21,-5.849999904632568 21,1.7430000305175781z"></path></g><g opacity="1" transform="matrix(1,0,0,1,26.066999435424805,28.094999313354492)"><path fill="rgb(238,199,142)" fill-opacity="1" d=" M-0.06800000369548798,5.561999797821045 C10.204999923706055,5.561999797821045 18.729000091552734,1.6349999904632568 20.54599952697754,-4.538000106811523 C18.764999389648438,-5.561999797821045 16.452999114990234,-5.265999794006348 15.00100040435791,-3.693000078201294 C12.295000076293945,-0.7599999904632568 6.520999908447266,1.062000036239624 -0.06800000369548798,1.062000036239624 C-6.447000026702881,1.062000036239624 -12.142000198364258,-0.6779999732971191 -14.930000305175781,-3.4779999256134033 C-16.45400047302246,-5.007999897003174 -18.802000045776367,-5.209000110626221 -20.54599952697754,-4.089000225067139 C-18.457000732421875,1.8259999752044678 -10.092000007629395,5.561999797821045 -0.06800000369548798,5.561999797821045z"></path></g><g opacity="1" transform="matrix(1,0,0,1,26,19.327999114990234)"><path stroke-linecap="butt" stroke-linejoin="miter" fill-opacity="0" stroke-miterlimit="10" stroke="rgb(141,108,159)" stroke-opacity="1" stroke-width="2" d=" M21,1.7430000305175781 C21,9.336000442504883 11.597999572753906,14.329000473022461 0,14.329000473022461 C-11.597999572753906,14.329000473022461 -21,9.336000442504883 -21,1.7430000305175781 C-21,-5.848999977111816 -11.597999572753906,-14.329000473022461 0,-14.329000473022461 C11.597999572753906,-14.329000473022461 21,-5.848999977111816 21,1.7430000305175781z"></path></g></g><g style="display: block;" transform="matrix(1,0,0,1,21.73699951171875,48.61199951171875)" opacity="1"><g opacity="1" transform="matrix(1,0,0,1,19.308000564575195,2.055999994277954)"><path stroke-linecap="round" stroke-linejoin="miter" fill-opacity="0" stroke-miterlimit="10" stroke="rgb(141,108,159)" stroke-opacity="1" stroke-width="2" d=" M0.25699999928474426,0.9670000076293945 C0.25699999928474426,0.9670000076293945 -0.25699999928474426,-0.9670000076293945 -0.25699999928474426,-0.9670000076293945"></path></g><g opacity="1" transform="matrix(1,0,0,1,14.82800006866455,2.8929998874664307)"><path stroke-linecap="round" stroke-linejoin="miter" fill-opacity="0" stroke-miterlimit="10" stroke="rgb(141,108,159)" stroke-opacity="1" stroke-width="2" d=" M0.11500000208616257,0.9929999709129333 C0.11500000208616257,0.9929999709129333 -0.11500000208616257,-0.9929999709129333 -0.11500000208616257,-0.9929999709129333"></path></g><g opacity="1" transform="matrix(1,0,0,1,10.274999618530273,3.130000114440918)"><path stroke-linecap="round" stroke-linejoin="miter" fill-opacity="0" stroke-miterlimit="10" stroke="rgb(141,108,159)" stroke-opacity="1" stroke-width="2" d=" M-0.009999999776482582,1 C-0.009999999776482582,1 0.009999999776482582,-1 0.009999999776482582,-1"></path></g><g opacity="1" transform="matrix(1,0,0,1,5.72599983215332,2.8239998817443848)"><path stroke-linecap="round" stroke-linejoin="miter" fill-opacity="0" stroke-miterlimit="10" stroke="rgb(141,108,159)" stroke-opacity="1" stroke-width="2" d=" M-0.12600000202655792,0.9919999837875366 C-0.12600000202655792,0.9919999837875366 0.12600000202655792,-0.9919999837875366 0.12600000202655792,-0.9919999837875366"></path></g><g opacity="1" transform="matrix(1,0,0,1,1.246999979019165,1.968999981880188)"><path stroke-linecap="round" stroke-linejoin="miter" fill-opacity="0" stroke-miterlimit="10" stroke="rgb(141,108,159)" stroke-opacity="1" stroke-width="2" d=" M-0.24699999392032623,0.968999981880188 C-0.24699999392032623,0.968999981880188 0.24699999392032623,-0.968999981880188 0.24699999392032623,-0.968999981880188"></path></g></g><g style="display: block;" transform="matrix(1,0,0,1,20.75,18.75)" opacity="1"><g opacity="1" transform="matrix(1,0,0,1,2.75,2.75)"><path fill="rgb(141,108,159)" fill-opacity="1" d=" M2.5,0 C2.5,0.6102944016456604 1.38100004196167,0.6031044721603394 0,0.6031044721603394 C-1.38100004196167,0.6031044721603394 -2.5,0.7327063083648682 -2.5,0 C-2.5,-1.38100004196167 -1.38100004196167,-2.5 0,-2.5 C1.38100004196167,-2.5 2.584219455718994,-1.378062129020691 2.5,0z"></path></g><g opacity="1" transform="matrix(1,0,0,1,19.75,2.75)"><path fill="rgb(141,108,159)" fill-opacity="1" d=" M2.5,0 C2.469641923904419,0.5182405710220337 1.38100004196167,0.5717670321464539 0,0.5717670321464539 C-1.38100004196167,0.5717670321464539 -2.469641923904419,0.7327063083648682 -2.5,0 C-2.584219455718994,-1.378062129020691 -1.38100004196167,-2.5 0,-2.5 C1.38100004196167,-2.5 2.541130304336548,-1.3800207376480103 2.5,0z"></path></g></g><g style="display: block;" transform="matrix(1,0,0,1,21,22.17300033569336)" opacity="1"><g opacity="1" transform="matrix(1,0,0,1,11,5.664999961853027)"><path stroke-linecap="round" stroke-linejoin="round" fill-opacity="0" stroke="rgb(241,131,164)" stroke-opacity="1" stroke-width="2" d=" M-5.173474311828613,-0.3144121766090393 C-1.6897144317626953,0.30114302039146423 1.7599421739578247,0.313432902097702 5.173474311828613,-0.3144121766090393"></path></g></g></g></svg>